<svg version="1.1" xmlns="http://www.w3.org/2000/svg" viewBox="0 0 584.9999542236328 296.7999572753906">
  <!-- svg-source:excalidraw -->
  <defs>
    <style>
      @font-face {
        font-family: "Virgil";
        src: url("https://excalidraw.com/FG_Virgil.woff2");
      }
      @font-face {
        font-family: "Cascadia";
        src: url("https://excalidraw.com/Cascadia.woff2");
      }
    </style>
  </defs>
  <rect x="0" y="0" width="584.9999542236328" height="296.7999572753906" fill="#ffffff"></rect><g transform="translate(197.2000732421875 92.40000915527344) rotate(0 93.19998168945312 53.19999694824219)"><path d="M-0.9848196487873793 1.7707333844155073 C67.1582718572386 2.02802284683045, 135.11679495811322 0.8085719558125362, 185.2286525387317 -0.34556606598198414 M0.8977851113304496 0.9851090321317315 C48.47967867272178 -0.5911420533796587, 95.72494713493099 -0.8025363931795397, 187.34555674996227 0.7376142451539636 M187.01064211316407 -1.9268186409026384 C185.11230818077877 23.404494100790444, 184.59010276839092 49.32073535505677, 186.97716796584427 104.64260998181999 M186.7875583311543 -0.4040600350126624 C186.36767832489193 39.83491663325263, 186.5416290268439 77.55726217511412, 186.06481204833835 106.31011605355889 M185.87724530883133 106.27603331021965 C139.97466613475777 106.4249152261264, 94.22016015709534 109.03452393593857, 1.6899034399539232 107.72894391231239 M186.12757931556553 106.1488723764196 C114.31836771886468 104.62860493725991, 41.72398365970045 105.50899793571686, -0.8361499765887856 106.60447397921234 M-1.5619509797543287 105.46425017528236 C-0.9226042546216703 69.35123041544385, 1.7730667673166538 31.293231941616085, -1.9613270740956068 0.7808063309639692 M-0.6855760077014565 106.9605261394754 C-0.14648970469896905 84.24466253743607, 0.5621079851680506 60.07497298477418, -0.7633657017722726 -0.4257902493700385" stroke="#000000" stroke-width="1" fill="none"></path></g><g transform="translate(222.0001220703125 112.09999084472656) rotate(0 69.5 32)"><text x="0" y="23" font-family="Virgil" font-size="20px" fill="#000000" text-anchor="start" style="white-space: pre;" direction="ltr">MonetDB main</text><text x="0" y="55" font-family="Virgil" font-size="20px" fill="#000000" text-anchor="start" style="white-space: pre;" direction="ltr">process</text></g><g transform="translate(436.3999938964844 10) rotate(0 68.79997253417969 36.80000305175781)"><path d="M0.6581825632601976 -0.8694888669997454 C45.735807477231006 -1.3118338290772513, 88.8678166227692 -1.3242630068383292, 136.83310914225876 0.06301119737327099 M-0.2780322292819619 -0.8937396695837379 C52.673326439792376 -0.36383198287742147, 105.66125947257521 -1.088878170516658, 137.7948471745476 0.1195678124204278 M137.90179610438645 -1.3486399371176958 C136.81591070770983 18.373102474830926, 138.18186790823702 38.05507857513404, 136.57382542081177 73.77849933318792 M137.56603424157947 -0.9095194926485419 C138.82831080142202 22.047774581293776, 138.80352626625242 43.92529665969166, 138.4609494348988 73.14178332779555 M138.04624468274415 72.92869207076727 C107.31359129899555 74.57903995112869, 78.30780749837683 73.66996236638519, 1.1971272248774767 72.12827816419302 M137.7530486723408 74.06407389137892 C107.57813481131258 73.5450437706404, 79.9775760757116 72.18577173766425, -0.9666763702407479 73.16493821237235 M-0.24361574463546276 74.02439680509268 C1.227050867158674 45.95690655019314, -2.316923115175463 18.5423990070856, -1.1959112267941236 0.1691714208573103 M0.21181355323642492 74.05203437898307 C-0.6798745611262901 58.3091071691218, -0.25161611228710246 43.781635014497354, -0.05562667641788721 0.8447026321664453" stroke="#000000" stroke-width="1" fill="none"></path></g><g transform="translate(450.79998779296875 11.300003051757812) rotate(0 51 32)"><text x="0" y="23" font-family="Virgil" font-size="20px" fill="#000000" text-anchor="start" style="white-space: pre;" direction="ltr">Database</text><text x="0" y="55" font-family="Virgil" font-size="20px" fill="#000000" text-anchor="start" style="white-space: pre;" direction="ltr">process 1</text></g><g transform="translate(436.39991760253906 108.20001220703125) rotate(0 68.79997253417969 36.80000305175781)"><path d="M-1.1489319782704115 -0.09552309103310108 C49.84030187441797 -1.5041483327328038, 97.43769193132998 1.1115982249797511, 138.06886607594788 -0.7140426952391863 M0.16263584699481726 0.5949702868238091 C44.15269736177309 -1.6295121604482787, 88.84141209768174 -0.4979461425821441, 137.58064140286297 0.19276282284408808 M137.1360729355365 0.4282765071839094 C139.0282266795722 27.584660619555603, 137.8821275293914 56.59965488512554, 137.6137300748378 75.01605382375418 M136.74868668522686 0.9065878102555871 C137.82397599109638 14.881229627900337, 137.2612285424136 29.36450887382878, 136.81193970050663 73.79289448354392 M137.96504032798111 73.11328330449759 C85.13344048809675 73.54980454546975, 28.414513453998524 74.17966929776239, -1.2434273343533278 72.11914953403173 M138.25211785640568 72.63265788648276 C84.63514450083746 72.72429626378903, 33.80733950311836 73.359026573037, -0.5278155067935586 73.41767767164855 M0.6844667810946703 73.49599632434546 C-0.7388271321903304 45.248289698557414, -1.4849209417949751 18.407410999405123, -1.157391307875514 -0.43582245893776417 M0.3702865382656455 73.70149472448973 C1.5907499482216636 57.46962962272832, 1.2801787843289176 41.645144625031854, 0.9810840329155326 -0.09264713432639837" stroke="#000000" stroke-width="1" fill="none"></path></g><g transform="translate(450.79991149902344 109.50001525878906) rotate(0 51 32)"><text x="0" y="23" font-family="Virgil" font-size="20px" fill="#000000" text-anchor="start" style="white-space: pre;" direction="ltr">Database</text><text x="0" y="55" font-family="Virgil" font-size="20px" fill="#000000" text-anchor="start" style="white-space: pre;" direction="ltr">process 2</text></g><g transform="translate(437.40000915527344 213.199951171875) rotate(0 68.79997253417969 36.80000305175781)"><path d="M1.3141338508576155 -1.4448852520436049 C45.735836507091555 -2.209219746213215, 86.10281923839874 0.6067420319506951, 137.41008224897087 -0.8681547027081251 M-0.2784196427091956 0.4054267844185233 C50.61018816807156 0.6635033419612668, 100.3254265711985 2.015584193754556, 137.71241355035454 0.9660943886265159 M137.39482393674552 -1.402144132182002 C138.66226490902883 23.441448486490245, 137.12584700751287 47.611764203917375, 135.8784047048539 73.12511933036147 M137.71340131852776 0.6466518780216575 C138.20744468301828 25.786395011610335, 137.5819935652643 49.44080088781376, 138.16709557268769 74.52200053539126 M138.05096682719886 72.87132704444228 C103.85037687093042 73.25739643276142, 64.37765976317272 73.711766871814, -0.9414064604789019 74.96875232644378 M136.70491042826325 73.38289402332155 C104.7101175416219 74.32751380797512, 71.44851042310799 74.5811239719022, -0.7900027623400092 73.37666518893091 M-1.7406918723136187 72.66263765282928 C0.8888905966844404 56.7944041909312, -0.2400985633764422 43.823816679350514, -1.7027936298400164 0.4486939925700426 M-0.28005808498710394 72.91618569102137 C-0.0796841144323609 54.84651391994191, 0.0720769107579925 38.44256690319596, -0.19199302699416876 0.30459396447986364" stroke="#000000" stroke-width="1" fill="none"></path></g><g transform="translate(451.8000030517578 214.4999542236328) rotate(0 51 32)"><text x="0" y="23" font-family="Virgil" font-size="20px" fill="#000000" text-anchor="start" style="white-space: pre;" direction="ltr">Database</text><text x="0" y="55" font-family="Virgil" font-size="20px" fill="#000000" text-anchor="start" style="white-space: pre;" direction="ltr">process 3</text></g><g transform="translate(10 112.40000915527344) rotate(0 64.39999389648438 33.600006103515625)"><path d="M1.4045623559504747 -0.3705159146338701 C33.38395379907814 -1.6544834706575584, 69.54657468861694 -1.026198003032894, 129.19903201051056 -1.7365750391036272 M0.8443895420059562 -0.47241783048957586 C50.06259072685491 -0.8627038136342271, 100.82179132424048 0.6284679934164779, 129.6887046834454 -0.746979801915586 M128.0790135283023 1.8512702863663435 C128.08368194283076 22.474504805899617, 129.5516918319566 48.55510436144363, 126.87165403552353 68.60120656900108 M128.56242318358272 0.5187403270974755 C128.78483263547753 24.488954941262165, 129.2215187042508 47.460421729804295, 129.23139862623066 67.8323445925489 M127.47030925936997 66.28751686029136 C99.89954070187125 67.4450412686226, 68.78995569234615 69.74833360270235, 1.889355482533574 68.27850958518684 M129.46465234365314 67.22253829333931 C88.5704040132642 67.3203269078404, 50.48345148213062 68.12679679533544, -0.036005125381052494 67.19660493824631 M0.5304148811846972 66.85674187354743 C1.3381227261132806 50.754487195364874, 0.9475930339402765 34.509377826630555, 1.4779053945094347 -0.02870163507759571 M-0.5230501750484109 67.04501244518906 C0.2866331361905196 51.50827111640476, 0.6184398256913284 36.883243387779146, -0.002697245217859745 -0.19872391130775213" stroke="#000000" stroke-width="1" fill="none"></path></g><g transform="translate(42.79998779296875 125.70001220703125) rotate(0 28.5 16)"><text x="0" y="23" font-family="Virgil" font-size="20px" fill="#000000" text-anchor="start" style="white-space: pre;" direction="ltr">Client</text></g><g><g transform="translate(146.79998779296875 148.40000915527344) rotate(0 23.44129396565262 -0.35433969693258405)"><path d="M-0.8642698835581542 0.02845076434314242 C7.0547441054135565 -0.012161849811673252, 39.891686980798845 -1.0021211970597506, 47.746857814863326 -0.8156643379479647 M0.8828496982343497 -1.0022165297158063 C8.671323674488812 -0.8597830181010069, 39.121198436189445 0.22534196270629747, 47.08590629534796 0.293537135850638" stroke="#000000" stroke-width="1" fill="none"></path></g></g><g><g transform="translate(389.20001220703125 114.00001525878906) rotate(0 22.38545330278572 -36.99003676984459)"><path d="M-0.6418313015252352 -0.23875592462718487 C7.086081144337853 -12.38066646568477, 37.5764693668733 -59.665115649625655, 45.41273790709674 -71.74999532215297 M1.222068535834551 -1.4097067303955555 C8.859115863194068 -13.421752557307483, 36.900507596681514 -62.00572457745672, 44.36639266207814 -73.741317615062" stroke="#000000" stroke-width="1" fill="none"></path></g></g><g><g transform="translate(386.79998779296875 144.40000915527344) rotate(0 22.574565104711837 -0.42320765392852877)"><path d="M0.2935687232762576 -1.1441587317734956 C7.48787390080591 -1.0073932636529206, 36.64127007412414 -0.0945472825318574, 43.91384635455906 0.2666265260428191 M-1.0114464263431728 0.8695539887063206 C6.491848748692622 0.6724890757910909, 38.26432333466286 -1.4406078176386654, 46.16057663576677 -1.7159692965634168" stroke="#000000" stroke-width="1" fill="none"></path></g></g><g><g transform="translate(387.5999755859375 174.00001525878906) rotate(0 22.555624420568336 33.780585221499194)"><path d="M-0.8299159515649079 -0.07289798967540273 C6.93061622492969 11.046047080432377, 38.10855581872165 56.049193009609986, 45.9411647927016 67.18722949512303 M0.9352394445240497 -1.1567733795940875 C8.552027588635683 10.123984532405935, 37.36191807344556 57.218590787301466, 44.752218027859925 68.7179438225925" stroke="#000000" stroke-width="1" fill="none"></path></g></g></svg>