<svg version="1.1" xmlns="http://www.w3.org/2000/svg" viewBox="0 0 660.4945370294154 222.8000030517578">
  <!-- svg-source:excalidraw -->
  <defs>
    <style>
      @font-face {
        font-family: "Virgil";
        src: url("https://excalidraw.com/FG_Virgil.woff2");
      }
      @font-face {
        font-family: "Cascadia";
        src: url("https://excalidraw.com/Cascadia.woff2");
      }
    </style>
  </defs>
  <rect x="0" y="0" width="660.4945370294154" height="222.8000030517578" fill="#ffffff"></rect><g><g transform="translate(88.39999389648438 28.300003051757812) rotate(0 275.31294496227054 -2.0552350269630466)"><path d="M-0.6839349020272493 0.17834424264729032 C91.21547117562342 -0.5313844107712288, 459.49959683424476 -3.6637288163726436, 551.3098248265683 -4.288814296573389" stroke="#000000" stroke-width="4.5" fill="none" stroke-dasharray="12 8"></path></g></g><g><g transform="translate(86.80001831054688 200.3000030517578) rotate(0 281.743127466552 -1.410181455127912)"><path d="M-0.20826378576457505 0.4987973581999541 C93.93937922486414 0.06919028889387469, 469.782252066272 -2.637374625541289, 563.6945187188685 -3.3191602684557666" stroke="#000000" stroke-width="4.5" fill="none" stroke-dasharray="12 8"></path></g></g><g><g transform="translate(102.01268955098465 186.48348817937074) rotate(0 44.715978305414296 -74.05399012820794)"><path d="M0.9651132870465517 0.5834790240973233 C15.971545849551136 -23.98640917488994, 74.9806510409185 -122.17416811183402, 89.4192975774221 -147.14331740396094 M0.012659033406525744 -0.15579843359068035 C15.012906432055555 -25.059731103961035, 74.0391691166566 -123.97813415790284, 89.05713751979171 -148.6914592805132" stroke="#000000" stroke-width="1" fill="none"></path></g><g transform="translate(102.01268955098465 186.48348817937074) rotate(0 44.715978305414296 -74.05399012820794)"><path d="M84.2921751636156 -117.38525072365529 C86.50070747025647 -127.78277947052852, 84.4456721354465 -134.16782711830834, 90.98357615128158 -149.57227863285686 M83.07663098173971 -118.91845405447758 C86.21918592848742 -130.26223597523474, 87.18547443767478 -142.14676616091228, 88.10126559410243 -149.58518422774966" stroke="#000000" stroke-width="1" fill="none"></path></g><g transform="translate(102.01268955098465 186.48348817937074) rotate(0 44.715978305414296 -74.05399012820794)"><path d="M66.70679039213786 -127.96231292565253 C73.30771724089475 -135.8740180266691, 75.62074816594313 -139.6318096244191, 90.98357615128158 -149.57227863285686 M65.49124621026198 -129.49551625647482 C75.62357617403002 -136.7837395394302, 83.59679907007737 -144.45381654036208, 88.10126559410243 -149.58518422774966" stroke="#000000" stroke-width="1" fill="none"></path></g></g><g transform="translate(62.80001831054676 101.60000610351562) rotate(301.7166066274267 61 13)"><text x="0" y="19" font-family="Virgil" font-size="16px" fill="#000000" text-anchor="start" style="white-space: pre;" direction="ltr">Text message 1</text></g><g transform="translate(11.600006103515625 10) rotate(0 28.5 16)"><text x="0" y="23" font-family="Virgil" font-size="20px" fill="#000000" text-anchor="start" style="white-space: pre;" direction="ltr">Client</text></g><g transform="translate(10 180.8000030517578) rotate(0 31 16)"><text x="0" y="23" font-family="Virgil" font-size="20px" fill="#000000" text-anchor="start" style="white-space: pre;" direction="ltr">Server</text></g><g><g transform="translate(209.19998168945312 37.899993896484375) rotate(0 35.14815046302971 75.00844438951462)"><path d="M-1.025390588119626 0.9709208775311706 C11.002015901729465 25.944718624030553, 59.288553441688414 125.1388149468849, 71.32169151417911 149.5818383861333 M0.6371406237781048 0.43505039289593705 C12.590913163870573 25.09445943747958, 58.81141978904605 123.22026824707785, 70.43752768680453 147.86972718790173" stroke="#000000" stroke-width="1" fill="none"></path></g><g transform="translate(209.19998168945312 37.899993896484375) rotate(0 35.14815046302971 75.00844438951462)"><path d="M50.75175089862371 126.95048752612179 C55.28571443709759 131.73867182580702, 56.92612372285959 136.43783478773418, 71.3749136314541 148.4266613676399 M48.38768155880446 126.9593851109848 C56.02930933389494 133.53632422508338, 61.0041676125125 138.69395820395744, 69.52886751431971 147.93454117339104" stroke="#000000" stroke-width="1" fill="none"></path></g><g transform="translate(209.19998168945312 37.899993896484375) rotate(0 35.14815046302971 75.00844438951462)"><path d="M69.3129196376936 118.19817255089299 C69.56303148512815 124.83878170311544, 66.9386215790252 131.54897324865934, 71.3749136314541 148.4266613676399 M66.94885029787434 118.207070135756 C69.2156406008012 127.13493131714748, 68.83579645969432 134.8175163287331, 69.52886751431971 147.93454117339104" stroke="#000000" stroke-width="1" fill="none"></path></g></g><g transform="translate(195.79901346806685 87.1796913823805) rotate(65.03966193476221 65.5 13)"><text x="0" y="19" font-family="Virgil" font-size="16px" fill="#000000" text-anchor="start" style="white-space: pre;" direction="ltr">Text message 2</text></g><g><g transform="translate(310.5182693551957 184.41871016209006) rotate(0 44.0097211731877 -73.98758762904443)"><path d="M0.12288830392062655 -0.858681447431445 C15.09306004699009 -25.774584599078317, 74.54030970761862 -124.69066783011267, 89.29117641223593 -149.28008210541677 M-1.2717340658605099 1.3049068473279477 C13.673215583149963 -23.516698625848313, 73.97764858337428 -123.5457962282778, 88.8617527428828 -148.29002545023334" stroke="#000000" stroke-width="1" fill="none"></path></g><g transform="translate(310.5182693551957 184.41871016209006) rotate(0 44.0097211731877 -73.98758762904443)"><path d="M81.67553756259356 -117.20079705561588 C82.78857204048329 -125.84464745546217, 85.73584153741398 -132.49035381321488, 89.99490150062366 -150.06634054141117 M82.96292431060199 -119.75508394069115 C85.23897952676661 -126.64559191490522, 86.28958587898623 -134.76634995389836, 89.0584701550938 -148.54382061300797" stroke="#000000" stroke-width="1" fill="none"></path></g><g transform="translate(310.5182693551957 184.41871016209006) rotate(0 44.0097211731877 -73.98758762904443)"><path d="M64.09649691418592 -127.7883998186341 C69.72604893985263 -133.74146189060193, 77.17083681334425 -137.67837776639422, 89.99490150062366 -150.06634054141117 M65.38388366219435 -130.34268670370938 C72.39157416033864 -134.485613531541, 78.2713484384552 -139.69783334606979, 89.0584701550938 -148.54382061300797" stroke="#000000" stroke-width="1" fill="none"></path></g></g><g transform="translate(269.17133014240756 95.70726361757136) rotate(301.7166066274267 65.5 13)"><text x="0" y="19" font-family="Virgil" font-size="16px" fill="#000000" text-anchor="start" style="white-space: pre;" direction="ltr">Text message 3</text></g><g><g transform="translate(414.65934536505233 38.99423459699656) rotate(0 35.54953149072827 74.91036918845028)"><path d="M-1.1518734443932772 1.1169656921178104 C10.710920084640383 26.058531917010743, 60.06557781808079 124.48248778271179, 72.2509364258498 149.16296964176 M0.4442542679607868 0.6577687351405621 C12.146992042809726 25.26802470927437, 59.99638196304441 122.82936932171386, 71.85462617710233 147.23095235273243" stroke="#000000" stroke-width="1" fill="none"></path></g><g transform="translate(414.65934536505233 38.99423459699656) rotate(0 35.54953149072827 74.91036918845028)"><path d="M52.12674804459225 128.15236971412213 C59.19506736007315 135.98881277286742, 67.66596676167084 143.73954242283162, 70.61459990985692 145.92300614945592 M49.87600933722119 126.74422620587411 C56.81878625563031 131.8961327462834, 64.20209577362635 139.61720069833703, 72.6934584074095 146.50154150974006" stroke="#000000" stroke-width="1" fill="none"></path></g><g transform="translate(414.65934536505233 38.99423459699656) rotate(0 35.54953149072827 74.91036918845028)"><path d="M70.56707361813146 119.14823760004725 C70.41611798673894 130.3149139385228, 71.70424126932282 141.57288454600172, 70.61459990985692 145.92300614945592 M68.3163349107604 117.74009409179922 C69.53392528032258 125.79949579363345, 71.26636147773576 136.27979973289982, 72.6934584074095 146.50154150974006" stroke="#000000" stroke-width="1" fill="none"></path></g></g><g transform="translate(401.83638635779334 87.36733196341447) rotate(65.03966193476221 64.5 13)"><text x="0" y="19" font-family="Virgil" font-size="16px" fill="#000000" text-anchor="start" style="white-space: pre;" direction="ltr">Text message 4</text></g><g><g transform="translate(513.9183548044148 184.81873457615274) rotate(0 43.25026739634575 -73.85084956841541)"><path d="M-0.20580334179103377 -0.7331115949898959 C14.344276223887375 -25.518509590119738, 73.50824668014731 -124.60506689742515, 88.27352361826225 -149.19810000913213 M-1.772988825570792 1.4964008723013102 C12.531320252918325 -23.12618423718648, 72.40375246648054 -123.41525480592931, 87.30983223207294 -148.16500275339928" stroke="#000000" stroke-width="1" fill="none"></path></g><g transform="translate(513.9183548044148 184.81873457615274) rotate(0 43.25026739634575 -73.85084956841541)"><path d="M80.40521785581277 -118.75781882954172 C82.31088649643182 -129.7864776841276, 85.98783040436766 -140.26589406214777, 87.66874225810169 -147.2191363194957 M82.06671674234585 -118.54506699116311 C84.27995447079594 -130.06926151202924, 85.48896309683128 -142.68551017496105, 87.20324108097701 -147.42645730488" stroke="#000000" stroke-width="1" fill="none"></path></g><g transform="translate(513.9183548044148 184.81873457615274) rotate(0 43.25026739634575 -73.85084956841541)"><path d="M62.800231075603676 -129.30222221970575 C71.37225504587241 -136.28235102254996, 81.75823381399003 -142.74343039142477, 87.66874225810169 -147.2191363194957 M64.46172996213676 -129.08947038132715 C73.5522853388366 -136.42363255226573, 81.73166363280968 -144.86501925847492, 87.20324108097701 -147.42645730488" stroke="#000000" stroke-width="1" fill="none"></path></g></g><g transform="translate(472.5714155916264 96.10728803163238) rotate(301.7166066274267 65.5 13)"><text x="0" y="19" font-family="Virgil" font-size="16px" fill="#000000" text-anchor="start" style="white-space: pre;" direction="ltr">Text message 5</text></g></svg>